<svg width="73" height="112" viewBox="0 0 73 112" fill="none" xmlns="http://www.w3.org/2000/svg">
<path d="M26 59.1158C24.4443 63.2878 23 70.1158 23 70.1158L28.5 73.6158C28.5 73.6158 34.0859 68.7962 37 65.1158C42.6385 57.9943 48.5 43.7631 48.5 43.7631C56.701 32.0474 72.5 21.6158 72.5 10.1157C72.5 -1.38433 68.5 1.26314 68.5 1.26314C55.1295 2.05043 47.07 27.4264 39 38.1158C33.1885 45.8136 29.3699 50.0784 26 59.1158Z" fill="#B76A23" stroke="black"/>
<path d="M20.3934 81.1137C20.5604 76.3019 18.7858 71.828 20.8209 68.7923C22.856 65.7566 33.9888 70.76 32.9981 73.2631C32.0074 75.7662 28.386 79.1653 25.4308 82.9472C22.4756 86.729 20.3934 81.1137 20.3934 81.1137Z" fill="#D89A61" stroke="black"/>
<path d="M10.4999 83.7631C13.2336 81.6152 20 79.2631 20 79.2631C21.5334 79.8765 23.486 81.1576 24.9999 81.7631C27.636 86.7747 27.636 90.7515 24.9999 95.7631C23.1348 99.3089 22.9325 100.033 20 102.763C17.2695 105.305 14.0026 107.979 10.4999 109.263C7.38319 110.405 1 110.763 1 110.763C1 110.763 4.3164 105.474 5.0001 102.763C5.9074 99.1657 4.10734 96.864 5.0001 93.2631C6.03169 89.1021 7.76625 85.9109 10.4999 83.7631Z" fill="#FDDEB6" stroke="black"/>
<path d="M10.4999 83.556C13.2336 81.4081 6.01151 91.7343 9.5 93.0561C10.7782 93.5404 12.1713 91.8768 13.5 91.5561C13.5 91.5561 15.6294 89.3254 17 90.5561C18.1714 91.6078 16.5 94.5561 16.5 94.5561C16.5 94.5561 14.917 96.8898 15 98.5561C15.203 102.628 27.636 90.5444 24.9999 95.556C23.1348 99.1018 22.9325 99.8262 20 102.556C17.2695 105.098 14.0026 107.772 10.4999 109.056C7.38319 110.198 1 110.556 1 110.556C1 110.556 4.3164 105.267 5.0001 102.556C5.9074 98.9587 4.10734 96.657 5.0001 93.056C6.03169 88.8951 7.76625 85.7039 10.4999 83.556Z" fill="#9D3CFF" stroke="black"/>
</svg>
