<svg width="92" height="92" viewBox="0 0 92 92" fill="none" xmlns="http://www.w3.org/2000/svg">
<path d="M50.2687 1.1804C57.2072 1.93307 72.3711 7.09342 70.3411 14.4777C69.3318 18.1493 65.9863 19.3354 63.898 22.5063C60.4287 27.7743 57.2196 33.0545 58.6941 38.3125C60.1685 43.5705 63.898 43.8322 72.8192 46.0902C81.7403 48.3483 86.3839 46.8423 89.4223 52.3625C93.4555 59.6901 89.0077 70.4357 84.4662 77.4518C78.2614 87.0374 63.898 91 50.2687 91C38.4621 91 24.001 80.4625 24.001 80.4625C24.001 80.4625 6.89187 72.0135 3.68055 60.3911C0.682352 49.54 -0.426536 43.767 3.68049 33.2947C10.3713 16.234 14.5428 15.2123 24.001 8.70718C33.9544 1.86144 43.3301 0.427729 50.2687 1.1804Z" fill="#D89A61" stroke="black" stroke-width="1.5"/>
<path d="M53.3848 14.9528C53.3848 18.5952 50.0059 21.7028 45.6348 21.7028C41.2636 21.7028 37.8848 18.5952 37.8848 14.9528C37.8848 11.3103 41.2636 8.20276 45.6348 8.20276C50.0059 8.20276 53.3848 11.3103 53.3848 14.9528Z" fill="#F11414" stroke="black" stroke-width="1.5"/>
<path d="M66.7666 76.1705C66.7666 79.8129 63.3878 82.9205 59.0166 82.9205C54.6454 82.9205 51.2666 79.8129 51.2666 76.1705C51.2666 72.528 54.6454 69.4205 59.0166 69.4205C63.3878 69.4205 66.7666 72.528 66.7666 76.1705Z" fill="#9D3CFF" stroke="black" stroke-width="1.5"/>
<path d="M40.9946 69.6474C40.9946 73.2899 37.6158 76.3974 33.2446 76.3974C28.8735 76.3974 25.4946 73.2899 25.4946 69.6474C25.4946 66.0049 28.8735 62.8974 33.2446 62.8974C37.6158 62.8974 40.9946 66.0049 40.9946 69.6474Z" fill="#4285F4" stroke="black" stroke-width="1.5"/>
<path d="M27.1172 50.5795C27.1172 54.2219 23.7384 57.3295 19.3672 57.3295C14.996 57.3295 11.6172 54.2219 11.6172 50.5795C11.6172 46.937 14.996 43.8295 19.3672 43.8295C23.7384 43.8295 27.1172 46.937 27.1172 50.5795Z" fill="#34A853" stroke="black" stroke-width="1.5"/>
<path d="M34.0557 28.501C34.0557 32.1434 30.6768 35.251 26.3057 35.251C21.9345 35.251 18.5557 32.1434 18.5557 28.501C18.5557 24.8585 21.9345 21.751 26.3057 21.751C30.6768 21.751 34.0557 24.8585 34.0557 28.501Z" fill="#FAE264" stroke="black" stroke-width="1.5"/>
</svg>
