<svg width="26" height="26" viewBox="0 0 26 26" fill="none" xmlns="http://www.w3.org/2000/svg">
<path d="M14.1383 1.04811C15.9886 1.24882 20.0323 2.62491 19.491 4.59406C19.2218 5.57315 18.3297 5.88944 17.7728 6.73501C16.8477 8.13981 15.9919 9.54787 16.3851 10.95C16.7783 12.3521 17.7728 12.4219 20.1518 13.0241C22.5308 13.6262 23.7691 13.2246 24.5793 14.6967C25.6548 16.6507 24.4687 19.5162 23.2576 21.3871C21.603 23.9433 17.7728 25 14.1383 25C10.9899 25 7.1336 22.19 7.1336 22.19C7.1336 22.19 2.57116 19.9369 1.71481 16.8376C0.915294 13.944 0.61959 12.4045 1.7148 9.61191C3.49902 5.0624 4.6114 4.78996 7.13359 3.05525C9.78784 1.22972 12.288 0.847394 14.1383 1.04811Z" stroke="#767676" stroke-width="2"/>
<path d="M14.1691 4.72076C14.1691 5.1591 13.7233 5.72076 12.9024 5.72076C12.0816 5.72076 11.6357 5.1591 11.6357 4.72076C11.6357 4.28243 12.0816 3.72076 12.9024 3.72076C13.7233 3.72076 14.1691 4.28243 14.1691 4.72076Z" stroke="#767676" stroke-width="2"/>
<path d="M17.7379 21.0455C17.7379 21.4838 17.2921 22.0455 16.4713 22.0455C15.6504 22.0455 15.2046 21.4838 15.2046 21.0455C15.2046 20.6071 15.6504 20.0455 16.4713 20.0455C17.2921 20.0455 17.7379 20.6071 17.7379 21.0455Z" stroke="#767676" stroke-width="2"/>
<path d="M10.8654 19.306C10.8654 19.7443 10.4196 20.306 9.5987 20.306C8.77784 20.306 8.33203 19.7443 8.33203 19.306C8.33203 18.8676 8.77784 18.306 9.5987 18.306C10.4196 18.306 10.8654 18.8676 10.8654 19.306Z" stroke="#767676" stroke-width="2"/>
<path d="M7.16468 14.2212C7.16468 14.6595 6.71887 15.2212 5.89801 15.2212C5.07716 15.2212 4.63135 14.6595 4.63135 14.2212C4.63135 13.7829 5.07716 13.2212 5.89801 13.2212C6.71887 13.2212 7.16468 13.7829 7.16468 14.2212Z" stroke="#767676" stroke-width="2"/>
<path d="M9.01478 8.33362C9.01478 8.77195 8.56897 9.33362 7.74811 9.33362C6.92726 9.33362 6.48145 8.77195 6.48145 8.33362C6.48145 7.89528 6.92726 7.33362 7.74811 7.33362C8.56897 7.33362 9.01478 7.89528 9.01478 8.33362Z" stroke="#767676" stroke-width="2"/>
</svg>
