<svg width="26" height="26" viewBox="0 0 26 26" fill="none" xmlns="http://www.w3.org/2000/svg">
<path d="M14.1383 1.04811C15.9886 1.24882 20.0323 2.62491 19.491 4.59406C19.2218 5.57315 18.3297 5.88944 17.7728 6.73501C16.8477 8.13981 15.9919 9.54787 16.3851 10.95C16.7783 12.3521 17.7728 12.4219 20.1518 13.0241C22.5308 13.6262 23.7691 13.2246 24.5793 14.6967C25.6548 16.6507 24.4687 19.5162 23.2576 21.3871C21.603 23.9433 17.7728 25 14.1383 25C10.9899 25 7.1336 22.19 7.1336 22.19C7.1336 22.19 2.57116 19.9369 1.71481 16.8376C0.915294 13.944 0.61959 12.4045 1.7148 9.61191C3.49902 5.0624 4.6114 4.78996 7.13359 3.05525C9.78784 1.22972 12.288 0.847394 14.1383 1.04811Z" fill="#B51215" stroke="#B51215" stroke-width="2"/>
<path d="M14.6691 4.72076C14.6691 5.49222 13.9388 6.22076 12.9024 6.22076C11.8661 6.22076 11.1357 5.49222 11.1357 4.72076C11.1357 3.94931 11.8661 3.22076 12.9024 3.22076C13.9388 3.22076 14.6691 3.94931 14.6691 4.72076Z" fill="white" stroke="#B51215"/>
<path d="M18.2379 21.0455C18.2379 21.8169 17.5076 22.5455 16.4713 22.5455C15.4349 22.5455 14.7046 21.8169 14.7046 21.0455C14.7046 20.274 15.4349 19.5455 16.4713 19.5455C17.5076 19.5455 18.2379 20.274 18.2379 21.0455Z" fill="white" stroke="#B51215"/>
<path d="M11.3654 19.306C11.3654 20.0774 10.635 20.806 9.5987 20.806C8.56235 20.806 7.83203 20.0774 7.83203 19.306C7.83203 18.5345 8.56235 17.806 9.5987 17.806C10.635 17.806 11.3654 18.5345 11.3654 19.306Z" fill="white" stroke="#B51215"/>
<path d="M7.66468 14.2212C7.66468 14.9926 6.93436 15.7212 5.89801 15.7212C4.86166 15.7212 4.13135 14.9926 4.13135 14.2212C4.13135 13.4497 4.86166 12.7212 5.89801 12.7212C6.93436 12.7212 7.66468 13.4497 7.66468 14.2212Z" fill="white" stroke="#B51215"/>
<path d="M9.51478 8.33362C9.51478 9.10507 8.78446 9.83362 7.74811 9.83362C6.71176 9.83362 5.98145 9.10507 5.98145 8.33362C5.98145 7.56217 6.71176 6.83362 7.74811 6.83362C8.78446 6.83362 9.51478 7.56217 9.51478 8.33362Z" fill="white" stroke="#B51215"/>
</svg>
