<svg width="144" height="144" viewBox="0 0 144 144" fill="none" xmlns="http://www.w3.org/2000/svg">
<g clip-path="url(#clip0_97_2443)">
<path d="M93.9104 8.67057C74.1405 11.4985 65.764 24.776 65.764 24.776C64.7224 22.0657 63.3821 19.4768 61.7671 17.056C61.6498 16.8847 61.4811 16.7539 61.2848 16.6821C61.0884 16.6102 60.8742 16.6008 60.6722 16.6553C58.4104 17.3526 56.3087 18.4802 54.4855 19.9746C54.3819 20.0574 54.2961 20.1596 54.233 20.2755C54.1699 20.3913 54.1308 20.5184 54.1179 20.6493C54.1051 20.7802 54.1188 20.9123 54.1583 21.038C54.1977 21.1636 54.2621 21.2802 54.3476 21.381C57.4567 25.1941 59.9846 29.4354 61.8513 33.9705C61.8627 33.978 61.876 33.982 61.8896 33.982C61.9032 33.982 61.9166 33.978 61.9279 33.9705C65.2554 33.4722 68.6158 33.2195 71.9813 33.2144H72.8389C74.3319 31.3694 80.3732 24.0955 85.6411 20.1637C85.7636 20.0624 85.9202 20.0104 86.0798 20.0181C86.2394 20.0258 86.3902 20.0925 86.5022 20.205C86.6141 20.3175 86.6791 20.4675 86.6842 20.6252C86.6892 20.7829 86.6339 20.9366 86.5293 21.0559C83.8724 24.3828 80.4038 28.292 76.8128 33.2597C76.8048 33.2717 76.8001 33.2854 76.799 33.2996C76.798 33.3139 76.8007 33.3281 76.8068 33.341C76.813 33.3539 76.8224 33.365 76.8342 33.3733C76.8459 33.3816 76.8596 33.3868 76.874 33.3883C80.4863 33.6476 84.0713 34.1963 87.5936 35.0291C87.6043 35.0344 87.6161 35.0372 87.628 35.0372C87.64 35.0372 87.6518 35.0344 87.6625 35.0291C96.085 27.8232 97.5551 17.4265 97.6776 11.9446C97.682 11.4744 97.5839 11.0088 97.3898 10.5794C97.1956 10.15 96.9102 9.76695 96.5527 9.45629C96.1953 9.14563 95.7742 8.91465 95.3183 8.77907C94.8623 8.64349 94.3822 8.60648 93.9104 8.67057Z" fill="white"/>
<path d="M71.9964 36.8438C42.5789 36.8438 18.7202 57.0398 18.7202 81.9542C18.7202 97.3489 27.8318 110.936 41.7366 119.08L37.5484 133.091C37.3839 133.639 37.3877 134.223 37.5595 134.769C37.7313 135.315 38.0633 135.798 38.5134 136.157C38.9635 136.517 39.5115 136.736 40.088 136.788C40.6645 136.84 41.2436 136.722 41.7519 136.448L61.0931 126.135C64.6934 126.753 68.342 127.057 71.9964 127.042C101.422 127.042 125.28 106.846 125.28 81.9315C125.28 57.0172 101.422 36.8438 71.9964 36.8438ZM77.6471 111.761C58.5051 111.761 42.977 98.6116 42.977 82.4003C42.977 66.189 58.4974 53.04 77.6471 53.04C96.7968 53.04 112.325 66.1814 112.325 82.4003C112.325 98.6191 96.7968 111.761 77.6471 111.761Z" fill="white"/>
<path d="M69.4851 85.4475C71.443 85.4475 73.0302 83.8801 73.0302 81.9466C73.0302 80.0131 71.443 78.4457 69.4851 78.4457C67.5271 78.4457 65.9399 80.0131 65.9399 81.9466C65.9399 83.8801 67.5271 85.4475 69.4851 85.4475Z" fill="white"/>
<path d="M80.84 90.8235C82.7979 90.8235 84.3851 89.2561 84.3851 87.3226C84.3851 85.3892 82.7979 83.8218 80.84 83.8218C78.8821 83.8218 77.2949 85.3892 77.2949 87.3226C77.2949 89.2561 78.8821 90.8235 80.84 90.8235Z" fill="white"/>
<path d="M92.195 85.4475C94.1529 85.4475 95.7401 83.8801 95.7401 81.9466C95.7401 80.0131 94.1529 78.4457 92.195 78.4457C90.2371 78.4457 88.6499 80.0131 88.6499 81.9466C88.6499 83.8801 90.2371 85.4475 92.195 85.4475Z" fill="white"/>
<rect x="1" width="144" height="144" fill="#DF8A8B"/>
<g clip-path="url(#clip1_97_2443)">
<path d="M92.8941 8.67069C73.3914 11.4986 65.128 24.7761 65.128 24.7761C64.1005 22.0658 62.7783 19.4769 61.1851 17.0561C61.0694 16.8848 60.9031 16.7541 60.7094 16.6822C60.5156 16.6103 60.3043 16.6009 60.105 16.6554C57.8738 17.3527 55.8005 18.4804 54.0019 19.9748C53.8998 20.0575 53.8151 20.1597 53.7528 20.2756C53.6906 20.3914 53.652 20.5185 53.6394 20.6494C53.6267 20.7803 53.6402 20.9125 53.6791 21.0381C53.718 21.1637 53.7816 21.2804 53.866 21.3812C56.933 25.1942 59.4268 29.4355 61.2682 33.9706C61.2794 33.9781 61.2926 33.9821 61.306 33.9821C61.3194 33.9821 61.3326 33.9781 61.3438 33.9706C64.6263 33.4723 67.9413 33.2196 71.2613 33.2145H72.1073C73.5802 31.3696 79.5398 24.0956 84.7365 20.1638C84.8574 20.0625 85.0119 20.0106 85.1693 20.0182C85.3267 20.0259 85.4755 20.0926 85.586 20.2051C85.6964 20.3176 85.7605 20.4676 85.7655 20.6253C85.7705 20.783 85.7159 20.9368 85.6127 21.056C82.9917 24.383 79.57 28.2921 76.0275 33.2599C76.0196 33.2718 76.015 33.2855 76.0139 33.2997C76.0129 33.314 76.0156 33.3282 76.0216 33.3411C76.0277 33.354 76.037 33.3652 76.0486 33.3734C76.0602 33.3817 76.0738 33.3869 76.0879 33.3884C79.6514 33.6477 83.1879 34.1965 86.6626 35.0292C86.6732 35.0345 86.6848 35.0373 86.6966 35.0373C86.7084 35.0373 86.7201 35.0345 86.7306 35.0292C95.0393 27.8233 96.4895 17.4266 96.6104 11.9447C96.6148 11.4745 96.5179 11.0089 96.3264 10.5795C96.1349 10.1501 95.8533 9.76707 95.5007 9.45641C95.1481 9.14575 94.7327 8.91477 94.2829 8.77919C93.8332 8.64361 93.3595 8.6066 92.8941 8.67069Z" fill="#DBDBDB"/>
<path d="M71.2764 36.8439C42.2565 36.8439 18.7202 57.04 18.7202 81.9543C18.7202 97.349 27.7087 110.937 41.4256 119.08L37.2939 133.091C37.1316 133.639 37.1355 134.223 37.305 134.769C37.4744 135.315 37.8019 135.798 38.2459 136.158C38.69 136.517 39.2305 136.737 39.7993 136.788C40.368 136.84 40.9392 136.722 41.4407 136.448L60.5205 126.135C64.0721 126.753 67.6714 127.057 71.2764 127.042C100.304 127.042 123.84 106.846 123.84 81.9316C123.84 57.0173 100.304 36.8439 71.2764 36.8439ZM76.8508 111.761C57.9674 111.761 42.6492 98.6117 42.6492 82.4004C42.6492 66.1891 57.9599 53.0401 76.8508 53.0401C95.7417 53.0401 111.06 66.1815 111.06 82.4004C111.06 98.6193 95.7417 111.761 76.8508 111.761Z" fill="#DBDBDB"/>
<path d="M68.799 85.4474C70.7304 85.4474 72.2962 83.88 72.2962 81.9465C72.2962 80.0131 70.7304 78.4457 68.799 78.4457C66.8675 78.4457 65.3018 80.0131 65.3018 81.9465C65.3018 83.88 66.8675 85.4474 68.799 85.4474Z" fill="#DBDBDB"/>
<path d="M80.0006 90.8235C81.9321 90.8235 83.4978 89.2561 83.4978 87.3226C83.4978 85.3892 81.9321 83.8218 80.0006 83.8218C78.0692 83.8218 76.5034 85.3892 76.5034 87.3226C76.5034 89.2561 78.0692 90.8235 80.0006 90.8235Z" fill="#DBDBDB"/>
<path d="M91.2023 85.4474C93.1338 85.4474 94.6995 83.88 94.6995 81.9465C94.6995 80.0131 93.1338 78.4457 91.2023 78.4457C89.2708 78.4457 87.7051 80.0131 87.7051 81.9465C87.7051 83.88 89.2708 85.4474 91.2023 85.4474Z" fill="#DBDBDB"/>
<path d="M58.3495 28.3442L63.6664 30.3093C64.8807 30.7581 65.9621 31.506 66.8105 32.4838C70.4957 36.7309 77.3435 35.7193 79.6434 30.588L80.0045 29.7822C80.4304 28.8321 81.0321 27.9711 81.7779 27.2446L84.0596 25.0218C85.958 23.1725 88.5035 22.1376 91.1537 22.1376C93.4026 22.1376 95.588 22.8832 97.3678 24.2578L100.728 26.8525C101.974 27.8152 102.836 29.1915 103.157 30.7332C103.994 34.7446 108.242 37.0353 112.053 35.5301L114.533 34.5509L118.87 33.367C124.034 31.9572 129.513 34.0921 132.362 38.6244L132.47 38.7975C133.617 40.6221 134.226 42.7335 134.226 44.8887C134.226 46.7971 133.749 48.6752 132.838 50.3522L128.831 57.7276C128.077 59.1164 128.306 60.8336 129.399 61.9758C129.857 62.4547 130.437 62.7993 131.077 62.9723L134.646 63.9374C137.153 64.6151 139.391 66.0474 141.056 68.0399C142.958 70.3165 144 73.189 144 76.1558V78.7728C144 81.0479 143.45 83.2892 142.396 85.3054L141.96 86.1382C141.068 87.8447 139.732 89.2785 138.092 90.288L130.526 94.9461C128.965 95.907 128.62 98.0293 129.796 99.4349C129.997 99.6745 130.234 99.8813 130.498 100.048L133.377 101.864C136.637 103.921 138.876 107.261 139.538 111.059L139.589 111.354C140.23 115.026 139.261 118.796 136.93 121.704C135.175 123.894 132.757 125.455 130.04 126.155L126.756 127.001C125.097 127.429 123.362 127.475 121.681 127.138L118.726 126.544C114.597 125.715 110.521 128.191 109.353 132.237C109.045 133.306 108.519 134.299 107.81 135.156L106.65 136.557C102.834 141.166 96.8566 143.402 90.952 142.43L89.9164 142.259L86.5598 141.275C84.8434 140.771 83.1777 140.109 81.5847 139.295L78.6944 137.82C78.0703 137.501 77.4972 137.091 76.9939 136.604C74.153 133.851 69.3416 131.921 65.8122 133.708C65.7154 133.757 65.6171 133.807 65.5173 133.857C64.5249 134.362 63.6675 134.842 62.9271 135.296C60.0044 137.086 54.4982 140.518 51.071 140.518C50.8555 140.518 50.6436 140.533 50.4288 140.55C49.141 140.655 44.2666 140.801 41.7049 137.339C40.653 135.918 39.9911 134.781 39.5748 133.906C38.8791 132.444 38.7027 130.782 38.366 129.198L37.4035 124.67C36.704 121.38 34.355 118.773 31.1228 117.839C29.5825 117.395 27.8458 117.333 26.2899 117.72L21.5963 118.886C20.4246 119.177 19.2217 119.325 18.0144 119.325H17.4141C12.3834 119.325 7.74924 116.594 5.31208 112.193C3.7471 109.367 3.22043 106.082 3.82341 102.909L4.54454 99.1131C4.83747 97.5714 5.48488 96.1188 6.43564 94.8703L8.32946 92.3833C11.2117 88.5982 9.91853 83.1231 5.6473 81.0277C3.87959 80.1604 2.52047 78.6371 1.85957 76.7824L0.961103 74.2609C0.326809 72.4809 0.0558832 70.5917 0.164345 68.7051L0.321139 65.9778C0.565891 61.7206 3.17852 57.9607 7.08306 56.2466L8.39257 55.6717C8.9657 55.4201 9.58481 55.2902 10.2107 55.2902H18.907C20.3139 55.2902 20.9332 53.5168 19.8322 52.641L19.5053 52.3743C15.9552 49.4775 13.8953 45.1382 13.8953 40.5562V39.1502C13.8953 35.9201 15.2048 32.8279 17.5246 30.5802C19.0361 29.1156 20.908 28.0769 22.9505 27.5693L23.2372 27.4981C26.7029 26.6368 30.3702 27.2357 33.3819 29.1548L35.9203 30.7723C36.1512 30.9195 36.393 31.0491 36.6434 31.1599L39.6502 32.4909C41.8403 33.4604 44.3037 31.8569 44.3037 29.4618C44.3037 27.6323 45.7868 26.1492 47.6164 26.1492H49.9488C50.4786 26.1492 51.0057 26.2238 51.5148 26.3707L58.3495 28.3442Z" fill="#DF8A8B" stroke="white" stroke-width="2"/>
<path d="M57.2414 9.10221L58.036 8.793C61.8901 7.29312 65.9898 6.52352 70.1256 6.52352H70.9677L71.7267 4.67118C72.8844 1.8456 75.6352 0 78.6887 0H79.1865C80.3627 0 81.512 0.351729 82.4868 1.00999L83.7537 1.86549C85.5121 3.0529 86.102 5.36925 85.1259 7.25312L89.9319 7.74992C91.4284 7.90461 92.9022 8.23048 94.3244 8.72112L95.2978 9.05693C100.683 10.9149 104.842 15.2559 106.468 20.7161C107.021 22.5721 107.286 24.5089 107.026 26.4279C106.653 29.187 105.798 33.2422 103.878 35.536C99.8284 40.375 92.3604 39.4081 86.3874 37.3738L85.7125 37.144C82.5864 36.0793 79.3063 35.536 76.0039 35.536H63.8678L53.5561 39.1727C51.1052 40.037 48.2501 39.9016 45.844 38.9194C40.9812 36.9342 38.4746 31.7606 39.7162 26.6571L39.8772 25.9953C40.274 24.3646 41.0259 22.8414 42.0792 21.5347L44.7074 18.2742C48.0124 14.1743 52.3338 11.012 57.2414 9.10221Z" fill="white"/>
<path d="M63.8678 35.536L53.5561 39.1727C51.1052 40.037 48.2501 39.9016 45.844 38.9194V38.9194C40.9812 36.9342 38.4746 31.7606 39.7162 26.6571L39.8772 25.9953C40.274 24.3646 41.0259 22.8414 42.0792 21.5347C43.023 20.3639 43.8719 19.3108 44.7074 18.2742C48.0124 14.1743 52.3338 11.012 57.2414 9.10221C57.5053 8.99952 57.7698 8.8966 58.036 8.793C61.8901 7.29312 65.9898 6.52352 70.1256 6.52352H70.9677M63.8678 35.536C63.8678 35.536 72.2147 30.9914 78.0677 30.0425C82.5787 29.3112 95.6088 30.0425 89.7617 30.0425M63.8678 35.536H76.0039C79.3063 35.536 82.5864 36.0793 85.7125 37.144C85.9395 37.2213 86.1643 37.2979 86.3874 37.3738C92.3604 39.4081 99.8284 40.375 103.878 35.536V35.536C105.798 33.2422 106.653 29.187 107.026 26.4279C107.286 24.5089 107.021 22.5721 106.468 20.7161V20.7161C104.842 15.2559 100.683 10.9149 95.2978 9.05693L94.3244 8.72112C92.9022 8.23048 91.4284 7.90461 89.9319 7.74992L85.1259 7.25312M70.9677 6.52352H78.0677L85.1259 7.25312M70.9677 6.52352L71.7267 4.67118C72.8844 1.8456 75.6352 0 78.6887 0H79.1865C80.3627 0 81.512 0.351729 82.4868 1.00999L83.7537 1.86549C85.5121 3.0529 86.102 5.36925 85.1259 7.25312V7.25312" stroke="#DF8A8B" stroke-width="2"/>
<path d="M40.2643 63.6796C40.2643 56.1495 33.5972 43.3238 40.2643 41.0811C42.3444 40.3813 45.844 44.3976 45.844 44.3976C45.844 44.3976 48.3939 47.2958 52.6145 52.6948C55.6548 56.5839 57.263 58.9401 61.914 59.7905C66.8718 60.697 75.148 61.1788 75.148 61.1788L88.6681 59.7905C88.6681 59.7905 88.9178 60.2539 92.0303 57.7081C95.4978 54.8718 100.686 44.3976 100.686 44.3976L103.047 41.0811C103.047 41.0811 107.293 36.0351 107.293 43.208C107.293 50.3809 105.55 63.6796 105.55 63.6796C105.55 68.3784 107.293 75.7115 107.293 75.7115C107.293 75.7115 108.233 82.1516 109.127 86.2781C110.021 90.4046 111.456 93.763 111.488 98.9271C111.52 104.207 110.746 108.141 107.293 111.885C103.82 115.649 100.511 116.222 95.6984 117.056L95.464 117.097C92.0303 119.565 90.2444 120.916 87.309 122.573C83.382 124.789 80.7531 124.809 80.7531 124.809C80.7531 124.809 72.2404 126.661 65.0616 124.809C57.8828 122.958 57.6935 122.573 57.6935 122.573C57.6935 122.573 50.7685 119.235 48.3939 117.097C44.0853 116.348 41.567 115.044 38.3328 111.885C34.6182 108.256 34.0923 104.324 33.8261 98.9271C33.576 93.8568 35.2275 91.1299 36.616 86.2781C37.8201 82.0707 39.5169 80.0403 40.2643 75.7115C41.0618 71.0921 40.2643 68.3784 40.2643 63.6796Z" fill="white"/>
<path d="M48.3939 117.097C44.0853 116.348 41.567 115.044 38.3328 111.885C34.6182 108.256 34.0923 104.324 33.8261 98.9271C33.576 93.8568 35.2275 91.1299 36.616 86.2781C37.8201 82.0707 39.5169 80.0403 40.2643 75.7115C41.0618 71.0921 40.2643 68.3784 40.2643 63.6796C40.2643 56.1495 33.5972 43.3238 40.2643 41.0811C42.3444 40.3813 45.844 44.3976 45.844 44.3976C45.844 44.3976 48.3939 47.2958 52.6145 52.6948C55.6548 56.5839 57.263 58.9401 61.914 59.7905C66.8718 60.697 75.148 61.1788 75.148 61.1788L88.6681 59.7905C88.6681 59.7905 88.9178 60.2539 92.0303 57.7081C95.4978 54.8718 100.686 44.3976 100.686 44.3976L103.047 41.0811C103.047 41.0811 107.293 36.0351 107.293 43.208C107.293 50.3809 105.55 63.6796 105.55 63.6796C105.55 68.3784 107.293 75.7115 107.293 75.7115C107.293 75.7115 108.233 82.1516 109.127 86.2781C110.021 90.4046 111.456 93.763 111.488 98.9271C111.52 104.207 110.746 108.141 107.293 111.885C103.764 115.71 100.404 116.24 95.464 117.097M48.3939 117.097C51.1736 117.097 53.197 117.097 55.9766 117.097C58.7563 117.097 60.4716 116.521 63.1555 115.741C65.8387 114.961 67.3162 113.975 69.3075 111.885C70.0457 111.11 71.0243 109.725 71.0243 109.725M48.3939 117.097C50.7685 119.235 57.6935 122.573 57.6935 122.573C57.6935 122.573 57.8828 122.958 65.0616 124.809C72.2404 126.661 80.7531 124.809 80.7531 124.809C80.7531 124.809 83.382 124.789 87.309 122.573C90.2444 120.916 92.0303 119.565 95.464 117.097M71.0243 109.725C71.0243 106.201 71.0243 98.9271 71.0243 98.9271M71.0243 109.725C74.2876 112.875 76.5838 114.295 80.7531 115.741C86.8961 117.872 89.0926 118.201 95.464 117.097" stroke="#DF8A8B" stroke-width="2"/>
<path d="M69.654 99.6582C70.4428 100.49 71.7678 100.49 72.5566 99.6582L78.4355 93.4584C79.644 92.1839 78.7406 90.0822 76.9843 90.0822H65.2263C63.47 90.0822 62.5666 92.1839 63.775 93.4584L69.654 99.6582Z" fill="#DF8A8B"/>
<path d="M94.2114 95.2237L127.118 86.8167M94.2114 104.171L127.118 109.801M49.502 95.2237L18.2412 86.8167M49.502 104.171L18.2412 107.101" stroke="#DF8A8B" stroke-width="2"/>
<ellipse cx="54.2238" cy="81.6422" rx="7.01043" ry="7.55855" fill="#DF8A8B"/>
<ellipse cx="56.5125" cy="78.3269" rx="1.78837" ry="1.9282" fill="white"/>
<ellipse cx="88.5602" cy="81.6422" rx="7.01043" ry="7.55855" fill="#DF8A8B"/>
<ellipse cx="90.8489" cy="78.3269" rx="1.78838" ry="1.9282" fill="white"/>
<ellipse cx="74.5396" cy="92.2418" rx="1.71684" ry="0.771282" fill="white"/>
</g>
</g>
<defs>
<clipPath id="clip0_97_2443">
<rect width="144" height="144" fill="white"/>
</clipPath>
<clipPath id="clip1_97_2443">
<rect width="144" height="144" fill="white"/>
</clipPath>
</defs>
</svg>
