<svg width="142" height="37" viewBox="0 0 142 37" fill="none" xmlns="http://www.w3.org/2000/svg">
<path d="M29.88 12.12C30.8933 12.9467 30.8667 13.8933 29.8 14.96C28.7333 16 27.7467 16.1467 26.84 15.4L16.28 5.16L5.72 15.4C4.81333 16.1467 3.82667 16 2.76 14.96C1.72 13.8933 1.69333 12.9467 2.68 12.12L14.24 0.839999C14.9067 0.279998 15.5867 0.173332 16.28 0.519999C16.9467 0.173332 17.6267 0.279998 18.32 0.839999L29.88 12.12ZM20 32.12C20 33.4 19.2 34.04 17.6 34.04C16.0267 34.04 15.24 33.4 15.24 32.12V22.88C15.24 22.7733 15.2267 22.68 15.2 22.6C15.1733 22.52 15.0667 22.48 14.88 22.48H2.12C1.13333 22.48 0.626667 21.8133 0.6 20.48C0.6 19.12 1.10667 18.44 2.12 18.44H17.48C18.44 18.44 19.0933 18.6933 19.44 19.2C19.8133 19.68 20 20.2267 20 20.84V32.12ZM61.2863 12.12C62.2996 12.9467 62.2729 13.8933 61.2063 14.96C60.1396 16 59.1529 16.1467 58.2463 15.4L47.6863 5.16L37.1263 15.4C36.2196 16.1467 35.2329 16 34.1663 14.96C33.1263 13.8933 33.0996 12.9467 34.0863 12.12L45.6463 0.839999C46.3129 0.279998 46.9929 0.173332 47.6863 0.519999C48.3529 0.173332 49.0329 0.279998 49.7263 0.839999L61.2863 12.12ZM51.4062 32.12C51.4062 33.4 50.6063 34.04 49.0063 34.04C47.4329 34.04 46.6463 33.4 46.6463 32.12V22.88C46.6463 22.7733 46.6329 22.68 46.6063 22.6C46.5796 22.52 46.4729 22.48 46.2863 22.48H33.5263C32.5396 22.48 32.0329 21.8133 32.0063 20.48C32.0063 19.12 32.5129 18.44 33.5263 18.44H48.8863C49.8463 18.44 50.4996 18.6933 50.8463 19.2C51.2196 19.68 51.4062 20.2267 51.4062 20.84V32.12ZM101.053 14.32C101.053 15.1733 100.746 15.9067 100.133 16.52C99.5458 17.1067 98.8258 17.4 97.9725 17.4C97.1192 17.4 96.3858 17.1067 95.7725 16.52C95.1858 15.9067 94.8925 15.1733 94.8925 14.32C94.8925 13.4667 95.1858 12.7467 95.7725 12.16C96.3858 11.5467 97.1192 11.24 97.9725 11.24C98.8258 11.24 99.5458 11.5467 100.133 12.16C100.746 12.7467 101.053 13.4667 101.053 14.32ZM93.5725 32.12C93.5725 33.4 92.7725 34.04 91.1725 34.04C89.5992 34.04 88.8125 33.4 88.8125 32.12V1.96C88.8125 0.679998 89.5992 0.0399976 91.1725 0.0399976C92.7725 0.0399976 93.5725 0.679998 93.5725 1.96V32.12ZM84.3725 24.4C84.3725 25.68 83.5725 26.3333 81.9725 26.36C80.3992 26.36 79.6125 25.7067 79.6125 24.4V5.36C79.6125 5.25333 79.5992 5.16 79.5725 5.08C79.5458 5 79.4392 4.96 79.2525 4.96H70.8125C70.6258 4.96 70.5192 5 70.4925 5.08C70.4658 5.16 70.4525 5.25333 70.4525 5.36V23.92C70.4525 24.0267 70.4658 24.12 70.4925 24.2C70.5192 24.28 70.6258 24.32 70.8125 24.32H77.2525C78.2658 24.32 78.7592 25 78.7325 26.36C78.7325 27.6933 78.2392 28.36 77.2525 28.36H68.2125C67.2525 28.36 66.5858 28.12 66.2125 27.64C65.8658 27.1333 65.6925 26.5733 65.6925 25.96V3.32C65.6925 2.70666 65.8658 2.16 66.2125 1.68C66.5858 1.17333 67.2525 0.919998 68.2125 0.919998H81.8525C82.8125 0.919998 83.4658 1.17333 83.8125 1.68C84.1858 2.16 84.3725 2.70666 84.3725 3.32V24.4ZM120.677 8.2C120.864 8.09333 121.09 8.04 121.357 8.04H124.957V1.96C124.957 0.679998 125.744 0.0399976 127.317 0.0399976C128.917 0.0399976 129.717 0.679998 129.717 1.96V18.12C129.717 19.4 128.917 20.04 127.317 20.04C125.744 20.04 124.957 19.4 124.957 18.12V12.08H121.357C120.744 12.08 120.317 11.84 120.077 11.36C119.65 12.7467 118.984 14.36 118.077 16.2C116.344 19.6933 112.517 22.5067 106.597 24.64C105.13 25.1733 104.104 24.8133 103.517 23.56C102.957 22.3067 103.21 21.4933 104.277 21.12C107.264 20.0533 109.944 18.3733 112.317 16.08C113.277 15.1467 114.037 14.16 114.597 13.12H104.317C103.33 13.12 102.824 12.4533 102.797 11.12C102.797 9.76 103.304 9.08 104.317 9.08H115.837C115.89 8.73333 115.917 8.37333 115.917 8V5.36C115.917 5.25333 115.904 5.16 115.877 5.08C115.85 5 115.744 4.96 115.557 4.96H105.677C104.69 4.96 104.184 4.29333 104.157 2.96C104.157 1.6 104.664 0.919998 105.677 0.919998H118.157C119.117 0.919998 119.77 1.17333 120.117 1.68C120.49 2.16 120.677 2.70666 120.677 3.32V8.04V8.2ZM116.957 34.84C115.97 35.8 114.85 35.7867 113.597 34.8C112.37 33.8133 112.277 32.84 113.317 31.88L124.557 21.04C124.85 20.7467 125.184 20.5467 125.557 20.44C125.93 20.3333 126.304 20.28 126.677 20.28C127.05 20.28 127.424 20.3333 127.797 20.44C128.197 20.5467 128.544 20.7467 128.837 21.04L140.077 31.88C141.09 32.8667 140.984 33.84 139.757 34.8C138.557 35.7867 137.45 35.8 136.437 34.84L126.717 25.2L116.957 34.84ZM136.997 19.72C136.997 21 136.197 21.64 134.597 21.64C133.024 21.64 132.237 21 132.237 19.72V1.96C132.237 0.679998 133.024 0.0399976 134.597 0.0399976C136.197 0.0399976 136.997 0.679998 136.997 1.96V19.72Z" fill="black"/>
</svg>
