<svg width="100" height="100" viewBox="0 0 100 100" fill="none" xmlns="http://www.w3.org/2000/svg">
<g clip-path="url(#clip0_1_1482)">
<path d="M64.5095 6.02128C50.966 7.9851 45.2275 17.2056 45.2275 17.2056C44.514 15.3235 43.5958 13.5256 42.4894 11.8445C42.4091 11.7255 42.2935 11.6347 42.159 11.5848C42.0245 11.5349 41.8777 11.5284 41.7393 11.5662C40.1899 12.0505 38.7501 12.8335 37.5011 13.8713C37.4301 13.9288 37.3713 13.9998 37.3281 14.0802C37.2849 14.1607 37.2581 14.2489 37.2493 14.3398C37.2405 14.4308 37.2499 14.5225 37.2769 14.6098C37.3039 14.697 37.348 14.778 37.4066 14.848C39.5365 17.4959 41.2683 20.4413 42.5471 23.5907C42.5549 23.5959 42.564 23.5986 42.5733 23.5986C42.5827 23.5986 42.5918 23.5959 42.5996 23.5907C44.8791 23.2446 47.1812 23.0691 49.4868 23.0656H50.0742C51.0971 21.7844 55.2357 16.733 58.8445 14.0026C58.9285 13.9323 59.0358 13.8962 59.1451 13.9015C59.2544 13.9068 59.3577 13.9532 59.4344 14.0313C59.5111 14.1094 59.5557 14.2136 59.5591 14.3231C59.5625 14.4326 59.5247 14.5394 59.453 14.6222C57.6328 16.9326 55.2567 19.6473 52.7966 23.0971C52.7911 23.1054 52.7879 23.1149 52.7872 23.1248C52.7865 23.1347 52.7883 23.1446 52.7925 23.1535C52.7968 23.1625 52.8032 23.1702 52.8113 23.176C52.8193 23.1817 52.8287 23.1853 52.8386 23.1864C55.3132 23.3664 57.7691 23.7475 60.1821 24.3258C60.1894 24.3295 60.1975 24.3314 60.2057 24.3314C60.2139 24.3314 60.222 24.3295 60.2293 24.3258C65.9992 19.3217 67.0064 12.1018 67.0903 8.2949C67.0933 7.96837 67.0261 7.64502 66.8931 7.34684C66.7601 7.04866 66.5645 6.78265 66.3197 6.56692C66.0748 6.35118 65.7864 6.19078 65.474 6.09663C65.1617 6.00247 64.8327 5.97677 64.5095 6.02128Z" fill="#DBDBDB"/>
<path d="M49.4974 25.586C29.3446 25.586 13 39.6111 13 56.9127C13 67.6034 19.242 77.0392 28.7676 82.6944L25.8984 92.4243C25.7857 92.8049 25.7884 93.2104 25.9061 93.5895C26.0238 93.9686 26.2512 94.3042 26.5595 94.5539C26.8679 94.8035 27.2433 94.956 27.6382 94.9919C28.0332 95.0278 28.4299 94.9456 28.7781 94.7557L42.028 87.5935C44.4944 88.0231 46.9939 88.234 49.4974 88.2236C69.6554 88.2236 86 74.1985 86 56.8969C86 39.5953 69.6554 25.586 49.4974 25.586ZM53.3685 77.6116C40.255 77.6116 29.6174 68.4803 29.6174 57.2225C29.6174 45.9646 40.2498 36.8334 53.3685 36.8334C66.4872 36.8334 77.1248 45.9594 77.1248 57.2225C77.1248 68.4856 66.4872 77.6116 53.3685 77.6116Z" fill="#DBDBDB"/>
<path d="M47.7768 59.3385C49.118 59.3385 50.2054 58.25 50.2054 56.9073C50.2054 55.5647 49.118 54.4762 47.7768 54.4762C46.4355 54.4762 45.3481 55.5647 45.3481 56.9073C45.3481 58.25 46.4355 59.3385 47.7768 59.3385Z" fill="#DBDBDB"/>
<path d="M55.5556 63.0719C56.8969 63.0719 57.9842 61.9834 57.9842 60.6407C57.9842 59.2981 56.8969 58.2096 55.5556 58.2096C54.2143 58.2096 53.127 59.2981 53.127 60.6407C53.127 61.9834 54.2143 63.0719 55.5556 63.0719Z" fill="#DBDBDB"/>
<path d="M63.3349 59.3385C64.6762 59.3385 65.7635 58.25 65.7635 56.9073C65.7635 55.5647 64.6762 54.4762 63.3349 54.4762C61.9936 54.4762 60.9062 55.5647 60.9062 56.9073C60.9062 58.25 61.9936 59.3385 63.3349 59.3385Z" fill="#DBDBDB"/>
<path d="M40.5205 19.6835L44.2128 21.0481C45.056 21.3598 45.807 21.8792 46.3962 22.5582C48.9554 25.5075 53.7108 24.805 55.3079 21.2417L55.5587 20.6821C55.8544 20.0223 56.2723 19.4244 56.7902 18.9198L58.3748 17.3762C59.6931 16.092 61.4607 15.3733 63.3012 15.3733C64.8629 15.3733 66.3805 15.8911 67.6165 16.8457L69.9497 18.6476C70.8153 19.3161 71.4137 20.2718 71.637 21.3425C72.218 24.1282 75.1682 25.7189 77.8149 24.6736L79.5366 23.9936L82.5484 23.1715C86.1348 22.1925 89.9394 23.6751 91.9178 26.8225L91.9934 26.9427C92.7898 28.2098 93.2124 29.676 93.2124 31.1727C93.2124 32.498 92.881 33.8022 92.2484 34.9668L89.4662 40.0886C88.9422 41.053 89.1015 42.2455 89.8602 43.0387C90.1784 43.3713 90.5814 43.6106 91.0257 43.7307L93.5045 44.4009C95.2452 44.8716 96.799 45.8662 97.9552 47.2499C99.2763 48.8309 100 50.8257 100 52.8859V54.7033C100 56.2832 99.6177 57.8397 98.8858 59.2399L98.5834 59.8182C97.964 61.0032 97.0358 61.9989 95.8971 62.7L90.6428 65.9347C89.5588 66.6021 89.3194 68.0759 90.1364 69.052C90.2756 69.2184 90.4399 69.362 90.6234 69.4777L92.623 70.7392C94.8871 72.1676 96.4413 74.487 96.9014 77.1242L96.9371 77.329C97.382 79.879 96.7093 82.4972 95.0902 84.5168C93.8712 86.0373 92.1924 87.1218 90.3052 87.6079L88.0253 88.1952C86.8727 88.4921 85.6678 88.5245 84.5009 88.2902L82.4487 87.8781C79.5809 87.3022 76.7507 89.0212 75.9396 91.8315C75.7254 92.5735 75.3607 93.2635 74.8681 93.8583L74.0626 94.8312C71.4122 98.032 67.2615 99.5847 63.1611 98.9094L62.4419 98.791L60.111 98.1074C58.919 97.7579 57.7623 97.2977 56.656 96.7329L54.6489 95.7081C54.2155 95.4869 53.8175 95.2022 53.468 94.8636C51.4952 92.952 48.1539 91.6119 45.7029 92.8525L45.4981 92.9565C44.8089 93.3072 44.2136 93.6405 43.6994 93.9554C41.6698 95.1984 37.846 97.582 35.466 97.582C35.3163 97.582 35.1692 97.5923 35.02 97.6044C34.1257 97.6773 30.7407 97.7784 28.9617 95.3744C28.2313 94.3872 27.7716 93.598 27.4825 92.9904C26.9994 91.9749 26.8768 90.8209 26.643 89.7209L25.9747 86.5767C25.4889 84.2914 23.8576 82.4809 21.6131 81.8328C20.5434 81.5239 19.3374 81.4814 18.2568 81.7499L14.9974 82.5599C14.1837 82.7621 13.3484 82.8643 12.51 82.8643H12.0931C8.59959 82.8643 5.38142 80.9678 3.68894 77.9116C2.60215 75.9491 2.23641 73.6682 2.65514 71.4643L3.15593 68.8285C3.35935 67.7579 3.80895 66.7492 4.46919 65.8821L5.78435 64.155C7.78592 61.5265 6.88787 57.7243 3.92174 56.2692C2.69416 55.6669 1.75032 54.6091 1.29136 53.3211L0.667433 51.5701C0.226951 50.3339 0.0388079 49.022 0.114129 47.7118L0.223013 45.8179C0.39298 42.8615 2.20731 40.2505 4.91879 39.0601L5.82817 38.6609C6.22618 38.4862 6.65612 38.3959 7.09079 38.3959H13.1299C14.1069 38.3959 14.5369 37.1644 13.7723 36.5562L13.5454 36.371C11.08 34.3594 9.64951 31.346 9.64951 28.164V27.1876C9.64951 24.9445 10.5589 22.7971 12.1698 21.2362C13.2195 20.2192 14.5194 19.4978 15.9379 19.1453L16.1369 19.0959C18.5437 18.4978 21.0904 18.9137 23.1819 20.2464L24.9446 21.3696C25.105 21.4719 25.2729 21.5618 25.4468 21.6388L27.5349 22.5631C29.0558 23.2364 30.7665 22.1228 30.7665 20.4596C30.7665 19.1891 31.7964 18.1591 33.0669 18.1591H34.6866C35.0546 18.1591 35.4207 18.2109 35.7741 18.313L40.5205 19.6835Z" fill="#DBDBDB" stroke="white" stroke-width="2"/>
<path d="M39.7509 6.32098L40.3027 6.10625C42.9792 5.06467 45.8262 4.53022 48.6982 4.53022H49.283L49.8101 3.24387C50.6141 1.28166 52.5243 0 54.6449 0H54.9905C55.8073 0 56.6055 0.244256 57.2824 0.701379L58.1622 1.29548C59.3833 2.12007 59.793 3.72865 59.1151 5.03689L62.4526 5.38189C63.4919 5.48931 64.5153 5.71561 65.503 6.05633L66.179 6.28954C69.9189 7.57978 72.8072 10.5944 73.9362 14.3862C74.3199 15.675 74.5037 17.02 74.3235 18.3527C74.0645 20.2688 73.4706 23.0849 72.1375 24.6778C69.3252 28.0382 64.1391 27.3668 59.9911 25.9541L59.5225 25.7944C57.3516 25.0551 55.0737 24.6778 52.7804 24.6778H44.3525L37.1916 27.2032C35.4896 27.8035 33.5069 27.7094 31.836 27.0273C28.4591 25.6488 26.7184 22.056 27.5806 18.5119L27.6924 18.0523C27.9679 16.9198 28.4901 15.8621 29.2216 14.9547L31.0467 12.6904C33.3418 9.84326 36.3428 7.64725 39.7509 6.32098Z" fill="#DBDBDB"/>
<path d="M44.3525 24.6778L37.1916 27.2032C35.4896 27.8035 33.5069 27.7094 31.836 27.0273V27.0273C28.4591 25.6488 26.7184 22.056 27.5806 18.5119L27.6924 18.0523C27.9679 16.9198 28.4901 15.8621 29.2216 14.9547C29.877 14.1416 30.4665 13.4103 31.0467 12.6904C33.3418 9.84326 36.3428 7.64725 39.7509 6.32098C39.9341 6.24967 40.1178 6.17819 40.3027 6.10625C42.9792 5.06467 45.8262 4.53022 48.6982 4.53022H49.283M44.3525 24.6778C44.3525 24.6778 50.149 21.5218 54.2136 20.8629C57.3462 20.355 66.3949 20.8629 62.3344 20.8629M44.3525 24.6778H52.7804C55.0737 24.6778 57.3516 25.0551 59.5225 25.7944C59.6801 25.8481 59.8362 25.9013 59.9911 25.9541C64.1391 27.3668 69.3252 28.0382 72.1375 24.6778V24.6778C73.4706 23.0849 74.0645 20.2688 74.3235 18.3527C74.5037 17.02 74.3199 15.675 73.9362 14.3862V14.3862C72.8072 10.5944 69.9189 7.57978 66.179 6.28954L65.503 6.05633C64.5153 5.71561 63.4919 5.48931 62.4526 5.38189L59.1151 5.03689M49.283 4.53022H54.2136L59.1151 5.03689M49.283 4.53022L49.8101 3.24387C50.6141 1.28166 52.5243 0 54.6449 0H54.9905C55.8073 0 56.6055 0.244256 57.2824 0.701379L58.1622 1.29548C59.3833 2.12007 59.793 3.72865 59.1151 5.03689V5.03689" stroke="white" stroke-width="2"/>
<path d="M27.9612 44.2219C27.9612 38.9927 23.3313 30.086 27.9612 28.5285C29.4057 28.0426 31.836 30.8316 31.836 30.8316C31.836 30.8316 33.6068 32.8443 36.5377 36.5936C38.649 39.2944 39.7658 40.9306 42.9958 41.5212C46.4386 42.1507 52.186 42.4853 52.186 42.4853L61.575 41.5212C61.575 41.5212 61.7484 41.843 63.9098 40.075C66.3178 38.1054 69.9207 30.8316 69.9207 30.8316L71.5601 28.5285C71.5601 28.5285 74.5086 25.0243 74.5086 30.0055C74.5086 34.9867 73.2988 44.2219 73.2988 44.2219C73.2988 47.4849 74.5086 52.5774 74.5086 52.5774C74.5086 52.5774 75.1618 57.0497 75.7826 59.9153C76.4034 62.7809 77.3998 65.1132 77.422 68.6993C77.4446 72.3656 76.9066 75.0981 74.5086 77.6976C72.0971 80.3119 69.7994 80.7099 66.4571 81.2889L66.2943 81.3171C63.9098 83.0311 62.6696 83.9696 60.6311 85.1199C57.904 86.6589 56.0784 86.6732 56.0784 86.6732C56.0784 86.6732 50.1668 87.9587 45.1815 86.6732C40.1962 85.3878 40.0648 85.1199 40.0648 85.1199C40.0648 85.1199 35.2558 82.8022 33.6068 81.3171C30.6147 80.7975 28.8659 79.8915 26.6199 77.6976C24.0403 75.1778 23.6751 72.447 23.4902 68.6993C23.3165 65.1783 24.4634 63.2846 25.4277 59.9153C26.2638 56.9935 27.4422 55.5835 27.9612 52.5774C28.515 49.3695 27.9612 47.4849 27.9612 44.2219Z" fill="white"/>
<path d="M33.6068 81.3171C30.6147 80.7975 28.8659 79.8915 26.6199 77.6976C24.0403 75.1778 23.6751 72.447 23.4902 68.6993C23.3165 65.1783 24.4634 63.2846 25.4277 59.9153C26.2638 56.9935 27.4422 55.5835 27.9612 52.5774C28.515 49.3695 27.9612 47.4849 27.9612 44.2219C27.9612 38.9927 23.3313 30.086 27.9612 28.5285C29.4057 28.0426 31.836 30.8316 31.836 30.8316C31.836 30.8316 33.6068 32.8443 36.5377 36.5936C38.649 39.2944 39.7658 40.9306 42.9958 41.5212C46.4386 42.1507 52.186 42.4853 52.186 42.4853L61.575 41.5212C61.575 41.5212 61.7484 41.843 63.9098 40.075C66.3178 38.1054 69.9207 30.8316 69.9207 30.8316L71.5601 28.5285C71.5601 28.5285 74.5086 25.0243 74.5086 30.0055C74.5086 34.9867 73.2988 44.2219 73.2988 44.2219C73.2988 47.4849 74.5086 52.5774 74.5086 52.5774C74.5086 52.5774 75.1618 57.0497 75.7826 59.9153C76.4034 62.7809 77.3998 65.1132 77.422 68.6993C77.4446 72.3656 76.9066 75.0981 74.5086 77.6976C72.0582 80.3541 69.7252 80.7222 66.2943 81.3171M33.6068 81.3171C35.5371 81.3171 36.9422 81.3171 38.8726 81.3171C40.8029 81.3171 41.9941 80.9174 43.8579 80.3757C45.7212 79.834 46.7473 79.1491 48.1301 77.6976C48.6427 77.1595 49.3223 76.1979 49.3223 76.1979M33.6068 81.3171C35.2558 82.8022 40.0648 85.1199 40.0648 85.1199C40.0648 85.1199 40.1962 85.3878 45.1815 86.6732C50.1668 87.9587 56.0784 86.6732 56.0784 86.6732C56.0784 86.6732 57.9041 86.6589 60.6311 85.1199C62.6696 83.9696 63.9098 83.0311 66.2943 81.3171M49.3223 76.1979C49.3223 73.7506 49.3223 68.6993 49.3223 68.6993M49.3223 76.1979C51.5885 78.3852 53.1831 79.3712 56.0784 80.3757C60.3444 81.8557 61.8697 82.0843 66.2943 81.3171" stroke="#DBDBDB" stroke-width="2"/>
<path d="M47.9274 68.7394C48.7162 69.5712 50.0412 69.5712 50.83 68.7394L53.4909 65.9333C54.6994 64.6588 53.796 62.5571 52.0397 62.5571H46.7177C44.9614 62.5571 44.058 64.6588 45.2665 65.9333L47.9274 68.7394Z" fill="#DBDBDB"/>
<path d="M65.4246 66.1275L88.276 60.2894M65.4246 72.3406L88.276 76.2506M34.3764 66.1275L12.6675 60.2894M34.3764 72.3406L12.6675 74.3759" stroke="white" stroke-width="2"/>
<ellipse cx="37.6555" cy="56.696" rx="4.86836" ry="5.24899" fill="#DBDBDB"/>
<ellipse cx="39.2449" cy="54.3937" rx="1.24193" ry="1.33903" fill="white"/>
<ellipse cx="61.5002" cy="56.696" rx="4.86836" ry="5.24899" fill="#DBDBDB"/>
<ellipse cx="63.0896" cy="54.3937" rx="1.24193" ry="1.33903" fill="white"/>
<ellipse cx="51.7635" cy="64.0568" rx="1.19225" ry="0.535612" fill="white"/>
</g>
<defs>
<clipPath id="clip0_1_1482">
<rect width="100" height="100" fill="white"/>
</clipPath>
</defs>
</svg>
