<svg width="162" height="161" viewBox="0 0 162 161" fill="none" xmlns="http://www.w3.org/2000/svg">
<path d="M66.0224 33.1L71.8562 35.2562C73.1885 35.7486 74.375 36.5692 75.3059 37.642C79.3495 42.302 86.863 41.1921 89.3865 35.5619L89.7828 34.6778C90.25 33.6353 90.9102 32.6906 91.7285 31.8935L94.2321 29.4545C96.315 27.4254 99.108 26.2899 102.016 26.2899C104.483 26.2899 106.881 27.1081 108.834 28.6163L112.52 31.4633C113.888 32.5196 114.834 34.0296 115.186 35.7213C116.104 40.1227 120.766 42.6361 124.947 40.9845L127.668 39.9101L132.427 38.6111C138.093 37.0643 144.104 39.4067 147.23 44.3796L147.35 44.5695C148.608 46.5716 149.276 48.8882 149.276 51.2529C149.276 53.3469 148.752 55.4076 147.752 57.2476L143.357 65.34C142.529 66.8639 142.78 68.7481 143.979 70.0013C144.482 70.5268 145.119 70.9049 145.821 71.0947L149.737 72.1536C152.487 72.8972 154.942 74.4687 156.769 76.655C158.857 79.1529 160 82.3047 160 85.5599V88.4313C160 90.9276 159.396 93.3868 158.24 95.5991L157.762 96.5129C156.783 98.3852 155.317 99.9584 153.517 101.066L145.216 106.177C143.503 107.231 143.125 109.56 144.416 111.102C144.636 111.365 144.895 111.592 145.185 111.775L148.344 113.768C151.922 116.025 154.377 119.69 155.104 123.856L155.161 124.18C155.864 128.209 154.801 132.346 152.242 135.537C150.317 137.939 147.664 139.653 144.682 140.421L141.08 141.349C139.259 141.818 137.355 141.869 135.511 141.499L132.269 140.847C127.738 139.938 123.266 142.654 121.985 147.094C121.646 148.266 121.07 149.356 120.292 150.296L119.019 151.833C114.831 156.891 108.273 159.344 101.795 158.277L100.658 158.09L96.9754 157.01C95.092 156.458 93.2645 155.731 91.5165 154.838L88.3453 153.219C87.6605 152.869 87.0316 152.42 86.4794 151.885C83.3624 148.864 78.0831 146.747 74.2106 148.707C74.1044 148.761 73.9965 148.816 73.887 148.871C72.7981 149.425 71.8574 149.952 71.045 150.45C67.8382 152.414 61.7966 156.18 58.0362 156.18C57.7998 156.18 57.5673 156.196 57.3317 156.215C55.9186 156.33 50.5703 156.49 47.7596 152.692C46.6054 151.132 45.8791 149.885 45.4224 148.925C44.659 147.321 44.4654 145.497 44.096 143.759L43.04 138.791C42.2725 135.181 39.6951 132.32 36.1486 131.296C34.4585 130.808 32.553 130.741 30.8458 131.165L25.696 132.445C24.4103 132.764 23.0905 132.926 21.7658 132.926H21.1072C15.5874 132.926 10.5026 129.929 7.82853 125.1C6.1114 122 5.53353 118.396 6.19513 114.914L6.98637 110.749C7.30778 109.058 8.01814 107.464 9.06133 106.094L11.1393 103.365C14.3018 99.212 12.8828 93.2046 8.19635 90.9054C6.25678 89.9539 4.76551 88.2825 4.04036 86.2474L2.93565 83.1472C2.31647 81.4095 2 79.5785 2 77.7339V76.0777C2 71.0547 4.80671 66.4527 9.27257 64.1534L11.1041 63.2104C11.7993 62.8525 12.57 62.6657 13.3521 62.6657H22.7452C24.2889 62.6657 24.9684 60.7199 23.7603 59.759L23.4017 59.4664C19.5063 56.2879 17.2462 51.5267 17.2462 46.4992V44.9566C17.2462 41.4124 18.683 38.0196 21.2283 35.5533C22.8868 33.9464 24.9407 32.8067 27.1818 32.2497L27.4963 32.1716C31.299 31.2266 35.3229 31.8837 38.6274 33.9894L41.4125 35.7642C41.6659 35.9256 41.9312 36.0678 42.206 36.1895L45.5051 37.6499C47.9081 38.7136 50.611 36.9542 50.611 34.3262C50.611 32.3189 52.2384 30.6916 54.2457 30.6916H56.8049C57.3862 30.6916 57.9646 30.7734 58.5231 30.9346L66.0224 33.1Z" fill="#DBDBDB" stroke="white" stroke-width="3"/>
<path d="M64.8061 11.9871L65.6779 11.6479C69.9068 10.0022 74.4051 9.15775 78.9429 9.15775H79.8669L80.6997 7.12532C81.97 4.02503 84.9882 2 88.3386 2H88.8848C90.1753 2 91.4364 2.38592 92.506 3.10818L93.896 4.04686C95.8253 5.34971 96.4726 7.89126 95.4016 9.95828L100.675 10.5034C102.317 10.6731 103.934 11.0307 105.494 11.569L106.563 11.9375C112.472 13.976 117.035 18.7392 118.819 24.7302C119.425 26.7666 119.716 28.8917 119.431 30.9973C119.022 34.0247 118.083 38.4741 115.977 40.9909C111.534 46.3003 103.339 45.2395 96.7857 43.0074L96.0452 42.7552C92.6153 41.587 89.0162 40.9909 85.3928 40.9909H72.0767L60.7625 44.9811C58.0733 45.9295 54.9406 45.7809 52.3006 44.7032C46.9651 42.525 44.2148 36.8484 45.5771 31.2487L45.7538 30.5226C46.1891 28.7333 47.0141 27.0621 48.1698 25.6284L51.0536 22.0509C54.6798 17.5524 59.4214 14.0827 64.8061 11.9871Z" fill="#DBDBDB"/>
<path d="M72.0767 40.9909L60.7625 44.9811C58.0733 45.9295 54.9406 45.7809 52.3006 44.7032V44.7032C46.9651 42.525 44.2148 36.8484 45.5771 31.2487L45.7538 30.5227C46.1891 28.7333 47.0141 27.0621 48.1698 25.6284C49.2054 24.3437 50.1368 23.1882 51.0536 22.0509C54.6798 17.5524 59.4214 14.0827 64.8061 11.9871C65.0956 11.8745 65.3858 11.7615 65.6779 11.6479C69.9068 10.0022 74.4051 9.15775 78.9429 9.15775H79.8669M72.0767 40.9909C72.0767 40.9909 81.2352 36.0044 87.6572 34.9633C92.6068 34.1609 106.904 34.9633 100.488 34.9633M72.0767 40.9909H85.3928C89.0162 40.9909 92.6153 41.587 96.0452 42.7552C96.2944 42.8401 96.541 42.924 96.7857 43.0074C103.339 45.2395 111.534 46.3003 115.977 40.9909V40.9909C118.083 38.4741 119.022 34.0247 119.431 30.9973C119.716 28.8917 119.425 26.7666 118.819 24.7302V24.7302C117.035 18.7392 112.472 13.976 106.563 11.9375L105.494 11.569C103.934 11.0307 102.317 10.6731 100.675 10.5034L95.4016 9.95828M79.8669 9.15775H87.6572L95.4016 9.95828M79.8669 9.15775L80.6997 7.12532C81.97 4.02503 84.9882 2 88.3386 2H88.8848C90.1753 2 91.4364 2.38592 92.506 3.10818L93.896 4.04686C95.8253 5.34971 96.4726 7.89126 95.4016 9.95828V9.95828" stroke="white" stroke-width="3"/>
<path d="M46.1783 71.8706C46.1783 63.6084 38.863 49.5358 46.1783 47.075C48.4607 46.3073 52.3005 50.714 52.3005 50.714C52.3005 50.714 55.0983 53.894 59.7292 59.8178C63.0651 64.0851 64.8297 66.6704 69.9329 67.6035C75.3726 68.5981 84.4535 69.1268 84.4535 69.1268L99.2881 67.6035C99.2881 67.6035 99.5621 68.112 102.977 65.3186C106.782 62.2065 112.474 50.714 112.474 50.714L115.065 47.075C115.065 47.075 119.723 41.5385 119.723 49.4088C119.723 57.279 117.812 71.8706 117.812 71.8706C117.812 77.0262 119.723 85.0724 119.723 85.0724C119.723 85.0724 120.755 92.1385 121.736 96.6662C122.717 101.194 124.291 104.879 124.326 110.545C124.362 116.338 123.512 120.655 119.723 124.762C115.913 128.893 112.283 129.522 107.002 130.436L106.745 130.481C102.977 133.189 101.018 134.672 97.7968 136.49C93.488 138.921 90.6035 138.944 90.6035 138.944C90.6035 138.944 81.2632 140.975 73.3865 138.944C65.5097 136.913 65.302 136.49 65.302 136.49C65.302 136.49 57.7038 132.828 55.0983 130.481C50.3709 129.66 47.6077 128.229 44.0591 124.762C39.9833 120.781 39.4063 116.466 39.1142 110.545C38.8398 104.982 40.6518 101.99 42.1753 96.6662C43.4965 92.0498 45.3583 89.822 46.1783 85.0724C47.0533 80.0038 46.1783 77.0262 46.1783 71.8706Z" fill="white"/>
<path d="M55.0983 130.481C50.3709 129.66 47.6077 128.229 44.0591 124.762C39.9833 120.781 39.4063 116.466 39.1142 110.545C38.8398 104.982 40.6518 101.99 42.1753 96.6662C43.4965 92.0498 45.3583 89.822 46.1783 85.0724C47.0533 80.0038 46.1783 77.0262 46.1783 71.8706C46.1783 63.6084 38.863 49.5358 46.1783 47.075C48.4607 46.3073 52.3005 50.714 52.3005 50.714C52.3005 50.714 55.0983 53.894 59.7292 59.8178C63.0651 64.0851 64.8297 66.6704 69.9329 67.6035C75.3726 68.5981 84.4535 69.1268 84.4535 69.1268L99.2881 67.6035C99.2881 67.6035 99.5621 68.112 102.977 65.3186C106.782 62.2065 112.474 50.714 112.474 50.714L115.065 47.075C115.065 47.075 119.723 41.5385 119.723 49.4088C119.723 57.279 117.812 71.8706 117.812 71.8706C117.812 77.0262 119.723 85.0724 119.723 85.0724C119.723 85.0724 120.755 92.1385 121.736 96.6662C122.717 101.194 124.291 104.879 124.326 110.545C124.362 116.338 123.512 120.655 119.723 124.762C115.852 128.959 112.165 129.541 106.745 130.481M55.0983 130.481C58.1482 130.481 60.3684 130.481 63.4183 130.481C66.4682 130.481 68.3503 129.85 71.295 128.994C74.2392 128.138 75.8603 127.056 78.0452 124.762C78.8551 123.912 79.9289 122.393 79.9289 122.393M55.0983 130.481C57.7038 132.828 65.302 136.49 65.302 136.49C65.302 136.49 65.5097 136.913 73.3865 138.944C81.2632 140.975 90.6035 138.944 90.6035 138.944C90.6035 138.944 93.488 138.921 97.7968 136.49C101.018 134.672 102.977 133.189 106.745 130.481M79.9289 122.393C79.9289 118.526 79.9289 110.545 79.9289 110.545M79.9289 122.393C83.5095 125.849 86.0289 127.407 90.6035 128.994C97.3438 131.332 99.7538 131.693 106.745 130.481" stroke="#DBDBDB" stroke-width="3"/>
<path d="M62.4957 78.997C62.4957 78.997 62.4288 82.3798 58.3257 85.3697C54.0649 88.4745 48.9998 89.3101 48.9998 89.3101" stroke="#DBDBDB" stroke-width="2" stroke-linecap="round"/>
<path d="M78.5683 111.496C79.357 112.328 80.6821 112.328 81.4708 111.496L88.3737 104.216C89.5822 102.942 88.6787 100.84 86.9224 100.84H73.1166C71.3603 100.84 70.4569 102.942 71.6654 104.216L78.5683 111.496Z" fill="#DBDBDB"/>
<path d="M105.356 106.224L141.461 97M105.356 116.041L141.461 122.219M56.3 106.224L22 97M56.3 116.041L22 119.257" stroke="white" stroke-width="3"/>
<ellipse cx="61.4952" cy="91.5795" rx="7.692" ry="8.29341" fill="#DBDBDB"/>
<ellipse cx="64.0067" cy="87.942" rx="1.96225" ry="2.11567" fill="white"/>
<ellipse cx="99.17" cy="91.5795" rx="7.692" ry="8.29341" fill="#DBDBDB"/>
<ellipse cx="101.682" cy="87.942" rx="1.96225" ry="2.11567" fill="white"/>
<ellipse cx="83.7866" cy="103.21" rx="1.88376" ry="0.846266" fill="white"/>
<path d="M98.0268 77.997C98.0268 77.997 98.0937 81.3798 102.197 84.3697C106.458 87.4745 111.523 88.3101 111.523 88.3101" stroke="#DBDBDB" stroke-width="2" stroke-linecap="round"/>
<path d="M131.057 69C130.841 71 131.122 75 133.981 75C136.839 75 137.229 71 136.904 69" stroke="white" stroke-width="2" stroke-linecap="round"/>
<path d="M125.057 56C124.841 58 125.122 62 127.981 62C130.839 62 131.229 58 130.904 56" stroke="white" stroke-width="2" stroke-linecap="round"/>
</svg>
