<svg width="148" height="147" viewBox="0 0 148 147" fill="none" xmlns="http://www.w3.org/2000/svg">
<path d="M60.3495 30.3443L65.6664 32.3094C66.8807 32.7582 67.9621 33.5061 68.8105 34.4838C72.4957 38.7309 79.3435 37.7193 81.6434 32.5881L82.0045 31.7823C82.4304 30.8322 83.0321 29.9712 83.7779 29.2447L86.0596 27.0218C87.958 25.1725 90.5035 24.1376 93.1537 24.1376C95.4026 24.1376 97.588 24.8833 99.3678 26.2579L102.728 28.8526C103.974 29.8153 104.836 31.1915 105.157 32.7333C105.994 36.7447 110.242 39.0354 114.053 37.5301L116.533 36.5509L120.87 35.367C126.034 33.9573 131.513 36.0922 134.362 40.6245L134.47 40.7975C135.617 42.6222 136.226 44.7336 136.226 46.8887C136.226 48.7972 135.749 50.6753 134.838 52.3523L130.831 59.7276C130.077 61.1165 130.306 62.8337 131.399 63.9759C131.857 64.4548 132.437 64.7994 133.077 64.9724L136.646 65.9374C139.153 66.6152 141.391 68.0474 143.056 70.04C144.958 72.3166 146 75.1891 146 78.1558V80.7728C146 83.0479 145.45 85.2893 144.396 87.3055L143.96 88.1383C143.068 89.8448 141.732 91.2785 140.092 92.288L132.526 96.9461C130.965 97.9071 130.62 100.029 131.796 101.435C131.997 101.675 132.234 101.881 132.498 102.048L135.377 103.865C138.637 105.921 140.876 109.261 141.538 113.059L141.589 113.354C142.23 117.026 141.261 120.796 138.93 123.704C137.175 125.894 134.757 127.456 132.039 128.156L128.756 129.001C127.097 129.429 125.362 129.475 123.681 129.138L120.726 128.545C116.597 127.715 112.521 130.191 111.353 134.237C111.045 135.306 110.519 136.299 109.81 137.156L108.65 138.557C104.834 143.166 98.8566 145.402 92.952 144.43L91.9164 144.259L88.5598 143.275C86.8434 142.771 85.1777 142.109 83.5846 141.295L80.6944 139.82C80.0703 139.501 79.4972 139.091 78.9939 138.604C76.153 135.851 71.3416 133.921 67.8122 135.708C67.7154 135.757 67.6171 135.807 67.5173 135.857C66.5249 136.362 65.6675 136.842 64.9271 137.296C62.0044 139.086 56.4982 142.518 53.071 142.518C52.8555 142.518 52.6436 142.533 52.4288 142.55C51.141 142.655 46.2666 142.801 43.7049 139.339C42.653 137.918 41.9911 136.781 41.5748 135.906C40.8791 134.444 40.7027 132.782 40.366 131.198L39.4035 126.67C38.704 123.38 36.355 120.773 33.1228 119.839C31.5825 119.395 29.8458 119.333 28.2899 119.72L23.5963 120.886C22.4246 121.178 21.2217 121.325 20.0144 121.325H19.4141C14.3834 121.325 9.74924 118.594 7.31207 114.193C5.7471 111.367 5.22043 108.082 5.82341 104.909L6.54454 101.113C6.83747 99.5714 7.48488 98.1189 8.43564 96.8703L10.3295 94.3833C13.2117 90.5983 11.9185 85.1232 7.6473 83.0277C5.87959 82.1605 4.52047 80.6372 3.85956 78.7824L2.85274 75.9569C2.28843 74.3732 2 72.7045 2 71.0233V69.5139C2 64.9359 4.55802 60.7417 8.62816 58.6461L10.2974 57.7867C10.931 57.4605 11.6335 57.2902 12.3462 57.2902H20.907C22.3139 57.2902 22.9332 55.5169 21.8322 54.6411L21.5053 54.3744C17.9552 51.4776 15.8953 47.1383 15.8953 42.5562V41.1503C15.8953 37.9201 17.2048 34.828 19.5246 32.5802C21.0361 31.1157 22.908 30.0769 24.9505 29.5694L25.2372 29.4981C28.7029 28.6369 32.3702 29.2358 35.3819 31.1549L37.9203 32.7724C38.1512 32.9196 38.393 33.0491 38.6434 33.16L41.6502 34.491C43.8403 35.4605 46.3037 33.857 46.3037 31.4619C46.3037 29.6324 47.7868 28.1493 49.6164 28.1493H51.9488C52.4786 28.1493 53.0057 28.2238 53.5147 28.3708L60.3495 30.3443Z" fill="#D3853D" stroke="black" stroke-width="3"/>
<path d="M59.2409 11.1022L60.0355 10.793C63.8896 9.29312 67.9893 8.52352 72.1251 8.52352H72.9672L73.7262 6.67118C74.8839 3.8456 77.6347 2 80.6882 2H81.186C82.3622 2 83.5116 2.35173 84.4863 3.00999L85.7532 3.86549C87.5116 5.0529 88.1015 7.36925 87.1254 9.25312L91.9314 9.74992C93.4279 9.90461 94.9017 10.2305 96.3239 10.7211L97.2974 11.0569C102.683 12.9149 106.842 17.2559 108.468 22.7161C109.02 24.5721 109.285 26.5089 109.026 28.4279C108.652 31.187 107.797 35.2422 105.878 37.536C101.828 42.375 94.3599 41.4081 88.3869 39.3738L87.712 39.144C84.5859 38.0793 81.3058 37.536 78.0034 37.536H65.8673L55.5556 41.1727C53.1047 42.037 50.2496 41.9016 47.8435 40.9194C42.9807 38.9342 40.4741 33.7606 41.7157 28.6571L41.8767 27.9953C42.2735 26.3646 43.0254 24.8414 44.0787 23.5347L46.7069 20.2742C50.0119 16.1743 54.3333 13.012 59.2409 11.1022Z" fill="#B51215"/>
<path d="M65.8673 37.536L55.5556 41.1727C53.1047 42.037 50.2496 41.9016 47.8435 40.9194V40.9194C42.9807 38.9342 40.4741 33.7606 41.7157 28.6571L41.8767 27.9953C42.2735 26.3646 43.0254 24.8414 44.0787 23.5347C45.0225 22.3639 45.8714 21.3108 46.7069 20.2742C50.0119 16.1743 54.3333 13.012 59.2409 11.1022C59.5048 10.9995 59.7693 10.8966 60.0355 10.793C63.8896 9.29312 67.9893 8.52352 72.1251 8.52352H72.9672M65.8673 37.536C65.8673 37.536 74.2142 32.9914 80.0672 32.0425C84.5782 31.3112 97.6083 32.0425 91.7612 32.0425M65.8673 37.536H78.0034C81.3058 37.536 84.5859 38.0793 87.712 39.144C87.939 39.2213 88.1638 39.2979 88.3869 39.3738C94.3599 41.4081 101.828 42.375 105.878 37.536V37.536C107.797 35.2422 108.652 31.187 109.026 28.4279C109.285 26.5089 109.02 24.5721 108.468 22.7161V22.7161C106.842 17.2559 102.683 12.9149 97.2974 11.0569L96.3239 10.7211C94.9017 10.2305 93.4279 9.90461 91.9314 9.74992L87.1254 9.25312M72.9672 8.52352H80.0672L87.1254 9.25312M72.9672 8.52352L73.7262 6.67118C74.8839 3.8456 77.6347 2 80.6882 2H81.186C82.3622 2 83.5116 2.35173 84.4863 3.00999L85.7532 3.86549C87.5116 5.0529 88.1015 7.36925 87.1254 9.25312V9.25312" stroke="black" stroke-width="3"/>
<path d="M42.2638 65.6796C42.2638 58.1495 35.5967 45.3238 42.2638 43.0811C44.3439 42.3813 47.8435 46.3976 47.8435 46.3976C47.8435 46.3976 50.3934 49.2958 54.614 54.6948C57.6543 58.5839 59.2625 60.9401 63.9136 61.7905C68.8713 62.697 77.1475 63.1788 77.1475 63.1788L90.6677 61.7905C90.6677 61.7905 90.9174 62.2539 94.0298 59.7081C97.4973 56.8718 102.686 46.3976 102.686 46.3976L105.046 43.0811C105.046 43.0811 109.292 38.0351 109.292 45.208C109.292 52.3809 107.55 65.6796 107.55 65.6796C107.55 70.3784 109.292 77.7116 109.292 77.7116C109.292 77.7116 110.233 84.1516 111.127 88.2781C112.021 92.4046 113.455 95.763 113.487 100.927C113.52 106.207 112.745 110.141 109.292 113.885C105.763 117.71 102.404 118.24 97.4635 119.097C94.0298 121.565 92.244 122.916 89.3085 124.573C85.3815 126.789 82.7526 126.809 82.7526 126.809C82.7526 126.809 74.2399 128.661 67.0611 126.809C59.8823 124.958 59.693 124.573 59.693 124.573C59.693 124.573 52.768 121.235 50.3934 119.097C46.0848 118.348 43.5665 117.044 40.3323 113.885C36.6177 110.256 36.0918 106.324 35.8256 100.927C35.5755 95.8568 37.227 93.1299 38.6155 88.2781C39.8196 84.0707 41.5164 82.0403 42.2638 77.7116C43.0613 73.0921 42.2638 70.3784 42.2638 65.6796Z" fill="#EEC085"/>
<path d="M50.3934 119.097C46.0848 118.348 43.5665 117.044 40.3323 113.885C36.6177 110.256 36.0918 106.324 35.8256 100.927C35.5755 95.8568 37.227 93.1299 38.6155 88.2781C39.8196 84.0707 41.5164 82.0403 42.2638 77.7116C43.0613 73.0921 42.2638 70.3784 42.2638 65.6796C42.2638 58.1495 35.5967 45.3238 42.2638 43.0811C44.3439 42.3813 47.8435 46.3976 47.8435 46.3976C47.8435 46.3976 50.3934 49.2958 54.614 54.6948C57.6543 58.5839 59.2625 60.9401 63.9136 61.7905C68.8713 62.697 77.1475 63.1788 77.1475 63.1788L90.6677 61.7905C90.6677 61.7905 90.9173 62.2539 94.0298 59.7081C97.4973 56.8718 102.686 46.3976 102.686 46.3976L105.046 43.0811C105.046 43.0811 109.292 38.0351 109.292 45.208C109.292 52.3809 107.55 65.6796 107.55 65.6796C107.55 70.3784 109.292 77.7116 109.292 77.7116C109.292 77.7116 110.233 84.1516 111.127 88.2781C112.021 92.4046 113.455 95.763 113.487 100.927C113.52 106.207 112.745 110.141 109.292 113.885C105.763 117.71 102.404 118.24 97.4635 119.097M50.3934 119.097C53.1731 119.097 55.1965 119.097 57.9761 119.097C60.7558 119.097 62.4712 118.521 65.155 117.741C67.8382 116.961 69.3157 115.975 71.307 113.885C72.0452 113.11 73.0238 111.725 73.0238 111.725M50.3934 119.097C52.768 121.235 59.693 124.573 59.693 124.573C59.693 124.573 59.8823 124.958 67.0611 126.809C74.2399 128.661 82.7526 126.809 82.7526 126.809C82.7526 126.809 85.3815 126.789 89.3085 124.573C92.244 122.916 94.0298 121.565 97.4635 119.097M73.0238 111.725C73.0238 108.201 73.0238 100.927 73.0238 100.927M73.0238 111.725C76.2871 114.875 78.5833 116.295 82.7526 117.741C88.8957 119.872 91.0921 120.201 97.4635 119.097" stroke="black" stroke-width="3"/>
<path d="M71.655 101.658C72.4437 102.49 73.7688 102.49 74.5575 101.658L80.4365 95.4583C81.645 94.1839 80.7416 92.0822 78.9852 92.0822H67.2273C65.471 92.0822 64.5675 94.1839 65.776 95.4583L71.655 101.658Z" fill="black"/>
<path d="M96.2114 97.2237L129.118 88.8167M96.2114 106.171L129.118 111.801M51.502 97.2237L20.2412 88.8167M51.502 106.171L20.2412 109.101" stroke="black" stroke-width="3"/>
<ellipse cx="56.2233" cy="83.6422" rx="7.01043" ry="7.55855" fill="black"/>
<ellipse cx="58.5125" cy="80.3269" rx="1.78838" ry="1.9282" fill="white"/>
<ellipse cx="90.5602" cy="83.6422" rx="7.01043" ry="7.55855" fill="black"/>
<ellipse cx="92.8494" cy="80.3269" rx="1.78838" ry="1.9282" fill="white"/>
<ellipse cx="76.5396" cy="94.2417" rx="1.71684" ry="0.771281" fill="white"/>
</svg>
