<svg width="162" height="137" viewBox="0 0 162 137" fill="none" xmlns="http://www.w3.org/2000/svg">
<path d="M66.0224 9.09999L71.8562 11.2562C73.1885 11.7486 74.375 12.5692 75.3059 13.642C79.3495 18.302 86.863 17.1921 89.3865 11.5619L89.7828 10.6778C90.25 9.63535 90.9102 8.69063 91.7285 7.89347L94.2321 5.45453C96.315 3.42543 99.108 2.28992 102.016 2.28992C104.483 2.28992 106.881 3.10806 108.834 4.61629L112.52 7.46329C113.888 8.51956 114.834 10.0296 115.186 11.7213C116.104 16.1227 120.766 18.6361 124.947 16.9845L127.668 15.9101L132.427 14.6111C138.093 13.0643 144.104 15.4067 147.23 20.3796L147.35 20.5695C148.608 22.5716 149.276 24.8882 149.276 27.2529C149.276 29.3469 148.752 31.4076 147.752 33.2476L143.357 41.34C142.529 42.8639 142.78 44.7481 143.979 46.0013C144.482 46.5268 145.119 46.9049 145.821 47.0947L149.737 48.1536C152.487 48.8972 154.942 50.4687 156.769 52.655C158.857 55.1529 160 58.3047 160 61.5599V64.4313C160 66.9276 159.396 69.3868 158.24 71.5991L157.762 72.5129C156.783 74.3852 155.317 75.9584 153.517 77.0661L145.216 82.177C143.503 83.2314 143.125 85.56 144.416 87.1023C144.636 87.3651 144.895 87.592 145.185 87.7749L148.344 89.7681C151.922 92.0249 154.377 95.6896 155.104 99.8564L155.161 100.18C155.864 104.209 154.801 108.346 152.242 111.537C150.317 113.939 147.664 115.653 144.682 116.421L141.08 117.349C139.259 117.818 137.355 117.869 135.511 117.499L132.269 116.847C127.738 115.938 123.266 118.654 121.985 123.094C121.646 124.266 121.07 125.356 120.292 126.296L119.019 127.833C114.831 132.891 108.273 135.344 101.795 134.277L100.658 134.09L96.9754 133.01C95.092 132.458 93.2645 131.731 91.5165 130.838L88.3453 129.219C87.6605 128.869 87.0316 128.42 86.4794 127.885C83.3624 124.864 78.0831 122.747 74.2106 124.707C74.1044 124.761 73.9965 124.816 73.887 124.871C72.7981 125.425 71.8574 125.952 71.045 126.45C67.8382 128.414 61.7966 132.18 58.0362 132.18C57.7998 132.18 57.5673 132.196 57.3317 132.215C55.9186 132.33 50.5703 132.49 47.7596 128.692C46.6054 127.132 45.8791 125.885 45.4224 124.925C44.659 123.321 44.4654 121.497 44.096 119.759L43.04 114.791C42.2725 111.181 39.6951 108.32 36.1486 107.296C34.4585 106.808 32.553 106.741 30.8458 107.165L25.696 108.445C24.4103 108.764 23.0905 108.926 21.7658 108.926H21.1072C15.5874 108.926 10.5026 105.929 7.82853 101.1C6.1114 97.9997 5.53353 94.3959 6.19513 90.9137L6.98637 86.7492C7.30778 85.0576 8.01814 83.4638 9.06133 82.0939L11.1393 79.365C14.3018 75.212 12.8828 69.2046 8.19635 66.9054C6.25678 65.9539 4.76551 64.2825 4.04036 62.2474L2.93565 59.1472C2.31647 57.4095 2 55.5785 2 53.7339V52.0777C2 47.0547 4.80671 42.4527 9.27257 40.1534L11.1041 39.2104C11.7993 38.8525 12.57 38.6657 13.3521 38.6657H22.7452C24.2889 38.6657 24.9684 36.7199 23.7603 35.759L23.4017 35.4664C19.5063 32.2879 17.2462 27.5267 17.2462 22.4992V20.9566C17.2462 17.4124 18.683 14.0196 21.2283 11.5533C22.8868 9.94639 24.9407 8.80665 27.1818 8.24973L27.4963 8.17157C31.299 7.22658 35.3229 7.88373 38.6274 9.9894L41.4125 11.7642C41.6659 11.9256 41.9312 12.0678 42.206 12.1895L45.5051 13.6499C47.9081 14.7136 50.611 12.9542 50.611 10.3262C50.611 8.31886 52.2384 6.69155 54.2457 6.69155H56.8049C57.3862 6.69155 57.9646 6.77339 58.5231 6.93465L66.0224 9.09999Z" fill="#DBDBDB" stroke="white" stroke-width="3"/>
</svg>
